<svg version="1.1" id="Layer_1" xmlns="http://www.w3.org/2000/svg" xmlns:xlink="http://www.w3.org/1999/xlink" x="0px" y="0px"
	 width="100%" viewBox="0 0 1024 1024" enable-background="new 0 0 1024 1024" xml:space="preserve">
<path fill="#fde047e6" opacity="1.000000" stroke="none" 
	d="
M441.475922,459.398010 
	C456.611420,448.695190 468.485840,449.364136 484.761871,461.217804 
	C494.968964,468.651520 504.350159,477.300232 516.065186,482.563477 
	C521.227844,484.882965 526.489502,486.684296 532.188965,487.304596 
	C517.994202,483.928162 507.087585,475.252991 496.897369,465.533539 
	C487.713379,456.773743 478.232178,448.777710 463.693970,449.258453 
	C470.102600,445.469299 481.879517,447.534271 491.074615,453.177246 
	C499.055054,458.074829 505.051025,465.539642 514.079102,470.719818 
	C512.810730,467.938507 510.212494,466.681122 510.510284,463.637848 
	C515.085449,465.344482 518.127075,469.276825 523.538940,470.536346 
	C516.557861,462.147766 508.708313,456.351532 498.228271,451.819397 
	C503.168365,450.184052 506.464661,451.362823 509.656403,452.267059 
	C516.420898,454.183441 521.696960,458.502563 526.713196,463.237213 
	C533.819336,469.944427 539.952515,477.923798 549.735291,481.209290 
	C549.888428,481.260712 550.057312,481.265259 551.149902,481.444031 
	C543.689026,475.793060 537.899231,469.603943 533.025024,462.593140 
	C528.107117,455.519623 524.191162,447.940247 521.687622,439.358276 
	C533.858765,447.372742 547.791016,448.165924 561.309631,450.310638 
	C568.894165,451.513947 576.437073,452.721161 583.609131,455.556244 
	C594.505066,459.863403 600.950745,467.877747 602.145508,479.494171 
	C602.910522,486.932617 602.801514,494.492432 600.753723,501.830505 
	C599.567078,506.082733 599.679749,510.049469 601.043884,514.441467 
	C604.293457,524.904419 601.049561,534.189453 594.847534,542.771240 
	C591.945557,541.263916 593.528870,538.315491 591.160828,536.249878 
	C592.615662,549.049927 586.125244,558.430359 580.094177,567.927856 
	C575.280823,575.507568 570.778198,583.211182 568.440308,592.472351 
	C566.106323,588.588501 566.233521,580.595276 568.589600,573.894226 
	C569.968323,569.973022 571.620178,566.139954 573.306152,562.336853 
	C575.335876,557.758179 577.270935,553.143250 578.308899,548.237244 
	C579.557678,542.334778 576.169189,536.464661 570.696350,534.680908 
	C565.096558,532.855774 554.741211,535.885925 554.823425,540.456543 
	C554.929993,546.370789 552.335083,551.361450 552.010925,556.999451 
	C551.261902,570.025024 554.327698,582.442322 556.679504,595.016235 
	C558.249207,603.408813 557.194092,611.609192 554.088562,619.524475 
	C553.272095,621.605652 552.356567,623.748779 549.832031,625.686340 
	C549.832031,621.107361 549.832031,617.237366 549.832031,613.367371 
	C546.901123,630.025635 538.458801,642.852844 523.972168,652.629944 
	C523.143799,648.300598 525.698120,645.460205 525.583374,641.163574 
	C519.248108,656.671082 509.607147,667.792725 493.114929,674.112976 
	C495.248566,666.882507 497.196259,660.802002 493.525574,654.822449 
	C494.777496,660.721863 494.162231,666.318726 491.433716,671.719666 
	C490.171356,674.218506 488.701263,675.190430 485.906067,674.270142 
	C473.997253,670.349121 464.126617,661.707458 464.573822,647.510986 
	C463.386475,654.147827 463.558044,654.786804 471.333801,672.687500 
	C459.333588,671.897888 450.206970,656.661377 450.800934,638.243896 
	C448.681854,636.976685 445.910583,639.515991 443.614044,636.956665 
	C446.967407,633.986877 451.224365,631.720886 452.521088,626.713196 
	C449.600464,626.962524 447.401245,629.885559 443.234924,628.627869 
	C449.362396,624.045715 452.684906,618.345581 453.977417,611.545837 
	C454.566376,608.447327 455.101318,605.316711 455.324738,602.176758 
	C455.537262,599.189758 454.778748,596.791321 451.260193,595.699402 
	C448.212311,594.753418 445.760773,592.617310 444.951141,589.160950 
	C447.813782,587.435913 450.739532,586.202515 453.916687,585.242126 
	C459.052643,583.689697 455.423584,579.436035 455.889923,576.450378 
	C456.119415,574.981262 454.570526,573.344910 456.023895,571.669861 
	C460.164001,573.660889 464.653656,573.505981 468.846985,573.742493 
	C470.440735,572.716064 468.384613,571.329346 469.853607,570.345337 
	C477.714111,569.812256 476.355103,577.693787 478.221649,579.965149 
	C486.728577,583.419434 493.523102,586.623657 501.088104,587.355652 
	C504.838013,587.099487 505.511536,582.784180 508.493317,580.122314 
	C510.324005,584.886108 508.955505,588.697388 506.448578,592.080566 
	C498.686157,602.556335 486.333618,604.323486 475.746246,596.589966 
	C473.597290,595.020203 471.601776,593.293213 469.043793,592.312805 
	C465.384613,590.910339 462.523804,591.978577 460.154541,594.797913 
	C457.741302,597.669556 458.088104,600.621521 460.233307,603.466431 
	C462.082581,605.918945 463.599304,608.714600 467.637909,607.959229 
	C469.079620,607.689575 470.986084,608.488403 472.322662,609.352722 
	C475.606750,611.476440 479.058411,613.037170 482.945374,613.388794 
	C484.829712,613.559265 485.748413,614.649231 486.412170,616.229797 
	C490.062042,614.368408 487.932526,610.647705 489.504974,607.727356 
	C493.295258,609.840515 494.147247,613.733337 495.022919,617.140808 
	C496.017090,621.009033 492.716858,624.199280 491.639984,628.015442 
	C498.219513,625.645142 498.630066,615.079529 492.890259,604.605591 
	C503.996643,602.047058 516.386108,609.566040 519.644287,620.842285 
	C519.691833,616.423706 519.691833,616.423706 515.445068,608.492371 
	C517.085144,607.494202 517.615967,609.627747 519.325623,609.693420 
	C516.998047,605.727051 512.812927,604.197083 509.709686,601.426086 
	C517.369263,596.245483 517.567200,595.263123 513.514160,586.778931 
	C512.537476,584.734436 511.333893,582.658569 511.754669,580.165649 
	C517.305786,582.889282 523.224792,583.997437 529.171814,584.304810 
	C536.827576,584.700378 542.001892,580.002258 543.542358,571.818909 
	C544.112976,568.788025 544.128723,565.652771 544.450134,561.960205 
	C542.380066,564.200623 542.694580,567.398315 539.337891,568.237976 
	C540.054016,563.137512 541.917114,558.483521 541.749451,553.451050 
	C541.606079,549.147034 540.346680,547.076355 535.605042,547.244873 
	C526.617065,547.564209 517.611816,547.436890 508.613983,547.414734 
	C505.324310,547.406616 503.551880,548.393494 503.024017,552.127991 
	C502.161133,558.232788 499.353424,563.517822 494.020538,567.092529 
	C485.612152,572.728699 476.787476,570.677673 472.110443,561.700500 
	C470.210968,558.054565 469.076508,554.010193 467.316498,549.424194 
	C464.854614,556.032227 466.366760,563.878723 459.472473,567.950317 
	C458.060699,566.221375 460.560486,565.012634 459.564819,563.554138 
	C449.358490,558.891602 446.481506,554.365234 447.753418,544.947083 
	C448.527374,539.216187 452.678650,536.188660 458.074677,538.272217 
	C462.891998,540.132263 466.843872,539.714539 471.306976,537.231384 
	C476.710785,534.224731 483.036957,533.515930 488.819641,535.283142 
	C502.344330,539.416321 516.128235,538.656433 529.906799,538.682007 
	C532.343689,538.686584 534.848267,539.019958 537.418030,538.126831 
	C537.547729,532.338196 532.741394,528.874878 531.423828,523.796448 
	C535.208862,520.998657 539.506409,522.257690 543.816833,521.748047 
	C536.093628,519.168396 528.509644,521.106750 519.436829,521.493286 
	C525.315369,515.410400 530.434753,510.881256 536.333923,507.251190 
	C543.116028,503.077759 550.548950,500.611572 558.430420,499.961731 
	C563.330505,499.557648 567.856689,502.436859 572.899048,502.362549 
	C576.650940,502.307251 580.416565,503.177673 584.656982,503.122101 
	C575.687012,501.823669 574.052307,494.787689 571.736694,488.106445 
	C570.409241,484.276245 567.216187,481.708038 564.096436,479.173035 
	C566.084595,483.362549 568.114685,487.475983 569.221191,491.954163 
	C570.063049,495.361145 569.342773,497.368317 565.175964,497.229462 
	C553.648560,496.845276 542.294495,498.886963 530.867065,499.940613 
	C522.557312,500.706848 514.201416,500.646790 505.957428,499.261200 
	C492.924561,497.070648 480.616455,497.389618 470.409576,509.288330 
	C470.182922,503.525970 473.866791,501.268677 476.083313,497.604095 
	C468.093384,502.087219 464.572723,509.375641 461.035126,517.594543 
	C459.507324,509.967377 465.508118,499.658844 475.503479,491.225983 
	C469.753174,493.392822 463.657837,499.223419 458.911896,506.586792 
	C454.653046,513.194397 452.398743,520.644348 449.683105,528.627991 
	C447.508911,520.513184 453.252502,506.600189 465.330353,490.114197 
	C457.777405,496.138306 452.399658,502.524078 448.041199,509.824860 
	C443.772736,516.974792 440.887726,524.744019 438.041199,533.125244 
	C436.664154,528.931824 438.391113,521.692261 442.805664,510.002380 
	C445.624603,502.537811 449.841400,495.845551 453.793304,488.894104 
	C443.982056,493.734070 437.668915,501.729156 432.973297,511.228363 
	C428.339844,520.601929 426.390594,530.644409 426.024750,541.422119 
	C423.070831,538.279236 422.700256,528.479736 424.799561,516.778137 
	C426.271118,508.575562 429.982269,501.152283 433.155304,493.504944 
	C427.118225,499.101410 424.552887,506.830536 420.339233,513.525391 
	C421.619110,491.642548 433.119904,476.099396 451.863312,464.448608 
	C444.673126,463.236755 439.141022,465.950623 432.432892,468.562225 
	C435.203644,464.233398 438.270935,461.995667 441.475922,459.398010 
z"/>
<path fill="#fde047e6" opacity="1.000000" stroke="none" 
	d="
M547.686340,727.750366 
	C560.090454,704.678467 575.803833,683.728943 583.612610,658.572815 
	C575.603638,666.080566 568.630798,674.540588 558.931519,679.947693 
	C562.891479,674.034912 568.536804,669.570496 572.608032,662.864990 
	C568.985168,663.665100 567.456604,667.111755 563.829529,667.396484 
	C564.854431,663.144653 569.106995,661.551147 571.120117,657.261475 
	C567.664673,659.832275 564.761475,662.103821 561.265747,658.108521 
	C564.172546,655.039856 567.118652,651.929749 570.064758,648.819641 
	C569.997742,648.729004 569.930725,648.638428 569.863708,648.547852 
	C565.742493,651.331482 561.621277,654.115112 557.787231,656.704773 
	C555.564087,655.934631 557.546143,654.334351 556.454834,653.577332 
	C555.323181,653.125610 554.290649,654.603577 553.082336,653.694702 
	C552.415344,652.461914 553.498962,651.911682 554.225342,651.367249 
	C561.595520,645.843689 568.365051,639.690918 573.790588,632.210876 
	C576.874329,627.959412 576.164307,625.919495 571.053955,624.005371 
	C568.160889,639.408752 555.017456,644.989929 543.683472,652.256165 
	C539.489197,654.945068 535.105652,657.559753 530.464417,659.280457 
	C522.798706,662.122498 518.684204,667.702759 516.622070,675.107849 
	C515.392273,679.524109 512.793640,680.411621 507.414673,678.928406 
	C513.831177,675.897583 513.907593,669.901367 516.630432,665.409485 
	C519.127319,661.290405 522.765137,658.494934 527.005066,656.307190 
	C536.628845,651.341431 546.295349,646.426147 555.124268,640.091797 
	C560.573853,636.181824 565.762390,632.170471 566.451782,624.540100 
	C566.725586,621.510376 569.021973,618.828796 572.519287,618.892151 
	C576.386719,618.962158 579.149536,621.373962 580.251465,624.977966 
	C582.049255,630.857727 583.611877,636.826538 584.904480,642.837097 
	C585.655151,646.327759 587.481689,647.803711 590.885681,648.343201 
	C594.248657,648.876099 594.775208,646.281616 595.850586,644.425537 
	C615.226379,610.980408 634.550232,577.505066 653.859314,544.021301 
	C654.748962,542.478760 655.854675,540.959839 655.834900,538.671448 
	C651.851868,537.606079 647.873901,538.099060 643.957336,538.061035 
	C636.291870,537.986511 628.623169,537.946289 620.959595,538.091980 
	C617.113892,538.165100 615.747620,536.645508 615.679504,532.767700 
	C615.397461,516.712769 615.296875,516.710449 631.103821,516.709106 
	C649.602966,516.707458 668.102173,516.696594 686.601196,516.742310 
	C688.533569,516.747070 690.597656,516.218323 693.249634,518.162598 
	C633.491516,621.689270 573.701965,725.270203 513.186523,830.108887 
	C452.712830,725.385376 392.898987,621.804565 333.210205,518.440308 
	C334.973969,516.165527 336.773590,516.747070 338.329193,516.743042 
	C357.494843,516.692932 376.661835,516.815674 395.825500,516.612671 
	C400.120117,516.567200 401.986145,517.666382 401.467987,522.204468 
	C401.111023,525.330933 401.085449,528.565125 401.450043,531.688354 
	C402.068512,536.986633 399.604553,538.330811 394.820587,538.103027 
	C388.834259,537.817810 382.824493,537.989014 376.825317,538.028503 
	C374.695160,538.042542 372.507660,537.717224 369.580902,539.050171 
	C417.222198,621.591736 464.786499,703.999817 513.122009,787.744141 
	C525.023865,767.095154 536.269470,747.584717 547.686340,727.750366 
z"/>
<path fill="#fde047e6" opacity="1.000000" stroke="none" 
	d="
M270.669617,310.999939 
	C270.668121,285.016632 270.662170,259.533356 270.668640,234.050079 
	C270.670502,226.752625 270.745148,226.673874 277.817505,226.666351 
	C288.477173,226.655014 299.136902,226.650925 309.796478,226.683289 
	C325.954620,226.732346 333.474823,233.748398 334.078491,249.837967 
	C334.415466,258.819244 334.164948,267.823669 334.129608,276.817474 
	C334.108398,282.213135 331.743378,286.369812 326.392944,289.402100 
	C333.795959,293.514496 334.480743,299.970398 334.190033,306.899658 
	C333.813477,315.874512 334.910065,324.898438 333.578491,333.836548 
	C331.846649,345.461639 325.255737,351.748840 313.495300,352.145325 
	C300.851196,352.571594 288.182281,352.234955 275.524536,352.300446 
	C271.812469,352.319641 270.623871,350.434387 270.647522,346.976501 
	C270.728485,335.151489 270.673157,323.325531 270.669617,310.999939 
M309.259216,329.955017 
	C310.864410,329.104065 311.809326,327.725525 311.822968,325.959351 
	C311.878113,318.826324 311.891357,311.691498 311.782593,304.559448 
	C311.747742,302.275848 310.205566,300.710602 308.033081,300.567657 
	C303.902893,300.295898 299.744568,300.337708 295.601410,300.421326 
	C293.339935,300.466980 293.134918,302.304993 293.130127,304.028442 
	C293.109009,311.665833 293.147949,319.303375 293.120026,326.940735 
	C293.111298,329.326141 293.947388,330.756073 296.581573,330.658234 
	C300.552734,330.510712 304.526001,330.419861 309.259216,329.955017 
M303.264221,278.681610 
	C310.805939,278.573395 311.927917,277.481964 312.038086,270.060669 
	C312.077423,267.409088 312.060211,264.756531 312.057343,262.104431 
	C312.041809,247.679352 311.733704,247.461716 297.234100,248.226868 
	C294.283813,248.382553 293.029419,249.415314 293.074371,252.363831 
	C293.160248,257.998138 293.062988,263.635010 293.110626,269.270233 
	C293.200531,279.907593 292.149292,278.558838 303.264221,278.681610 
z"/>
<path fill="#fde047e6" opacity="1.000000" stroke="none" 
	d="
M551.000244,226.678299 
	C557.326538,226.683533 563.153198,226.648285 568.979126,226.701447 
	C583.589478,226.834778 591.373108,233.960693 592.029236,248.483673 
	C592.464600,258.119354 592.250916,267.790802 592.115540,277.443268 
	C592.045105,282.463806 590.917725,284.052032 584.841797,289.790405 
	C591.869873,293.557068 592.533264,300.009857 592.218201,306.967377 
	C591.812073,315.935883 593.004578,324.965454 591.626892,333.887482 
	C589.804443,345.688873 583.010315,351.847046 570.989075,352.180878 
	C558.679871,352.522705 546.353943,352.224487 534.036072,352.312378 
	C530.247375,352.339386 528.643127,350.751648 528.648682,346.925903 
	C528.704773,308.638702 528.702759,270.351349 528.654663,232.064133 
	C528.649902,228.280930 530.185547,226.576584 534.020752,226.660385 
	C539.511475,226.780365 545.006836,226.682755 551.000244,226.678299 
M569.816772,251.862747 
	C569.397400,251.156311 569.119202,250.288864 568.531799,249.774170 
	C566.873474,248.321091 554.283997,247.594543 552.473999,248.700882 
	C551.288879,249.425278 551.181763,250.585236 551.179871,251.750854 
	C551.167419,259.581757 551.179749,267.412781 551.204468,275.243683 
	C551.209473,276.834473 551.528503,278.488617 553.471191,278.523468 
	C557.789673,278.600983 562.134460,278.671143 566.424988,278.274048 
	C568.831787,278.051331 570.232483,275.886383 570.105774,273.560944 
	C569.725403,266.582458 571.300598,259.605255 569.816772,251.862747 
M552.327515,330.192688 
	C556.430603,331.210510 560.596985,330.587555 564.730652,330.596588 
	C567.790955,330.603271 569.579773,328.960358 570.065430,325.787262 
	C570.701355,321.631866 570.203430,317.494934 570.260132,313.351807 
	C570.462463,298.556427 569.090027,300.428253 555.936646,300.283020 
	C555.271973,300.275665 554.606262,300.309082 553.941956,300.342010 
	C552.113403,300.432556 551.192993,301.467285 551.231506,303.230469 
	C551.423645,312.019928 550.503052,320.830109 552.327515,330.192688 
z"/>
<path fill="#fde047e6" opacity="1.000000" stroke="none" 
	d="
M510.353760,244.037964 
	C511.492920,260.758209 511.632355,277.059174 510.254028,293.332245 
	C509.820435,298.451752 507.545227,303.012787 503.178345,306.042023 
	C500.371979,307.988770 499.957336,310.162842 500.832306,313.328033 
	C503.845428,324.227936 506.644470,335.187622 509.458405,346.141693 
	C510.743469,351.144287 509.989777,352.302887 504.956360,352.255371 
	C485.690979,352.073547 489.943542,354.845398 485.315643,338.202423 
	C483.176056,330.508026 481.222137,322.761597 479.045380,315.078064 
	C477.813721,310.730652 474.405304,309.137299 470.219666,310.526245 
	C467.746033,311.347076 468.269623,313.367889 468.259796,315.086578 
	C468.201843,325.246613 468.256714,335.407257 468.209229,345.567383 
	C468.181335,351.535278 467.472382,352.224579 461.628815,352.288422 
	C458.298035,352.324799 454.959351,352.141388 451.636871,352.308838 
	C447.260010,352.529388 445.747284,350.409668 445.753265,346.277344 
	C445.808167,308.300751 445.808685,270.324036 445.761475,232.347427 
	C445.756500,228.356400 447.376526,226.623383 451.441010,226.660126 
	C464.098846,226.774597 476.760223,226.571732 489.416626,226.748962 
	C501.039215,226.911697 507.458221,232.253357 510.353760,244.037964 
M472.808136,248.268768 
	C469.324585,247.866379 468.108185,249.465881 468.178314,252.886566 
	C468.335083,260.535187 468.065033,268.193207 468.255096,275.840332 
	C468.635406,291.140839 465.103729,288.541962 481.949310,288.828491 
	C486.532379,288.906464 488.683319,286.636139 488.682709,282.135895 
	C488.681854,275.814758 488.631897,269.492737 488.718658,263.172668 
	C488.942657,246.850281 488.634399,248.220490 472.808136,248.268768 
z"/>
<path fill="#fde047e6" opacity="1.000000" stroke="none" 
	d="
M712.397095,323.030640 
	C712.391113,331.188080 712.241760,338.855225 712.435669,346.513702 
	C712.546387,350.885864 710.708862,352.563293 706.474976,352.319397 
	C703.320068,352.137665 700.134094,352.104797 696.983826,352.321869 
	C692.193237,352.651978 690.565552,350.585571 690.600220,345.856384 
	C690.761475,323.866547 690.669312,301.874817 690.667603,279.883789 
	C690.666382,264.390106 690.647522,248.896393 690.672119,233.402756 
	C690.681885,227.253693 691.188171,226.714798 697.133484,226.697357 
	C709.295044,226.661697 721.458008,226.589783 733.618164,226.728928 
	C747.390808,226.886505 755.285339,234.905121 755.338989,248.626831 
	C755.390503,261.787933 755.265137,274.950073 755.375427,288.110413 
	C755.439453,295.750977 753.212708,302.313110 746.795532,306.782928 
	C744.134338,308.636627 744.829346,310.663116 745.415283,312.883636 
	C748.258057,323.657990 751.165955,334.415131 754.009705,345.189240 
	C755.631836,351.334991 754.932251,352.345459 748.606384,352.270996 
	C730.431763,352.057037 734.778564,354.782745 729.913269,338.222534 
	C727.615295,330.400757 725.542297,322.500366 723.729553,314.553009 
	C722.574219,309.487396 718.944031,310.327240 715.535217,310.455353 
	C711.612061,310.602844 712.523071,313.698914 712.407898,316.040497 
	C712.301636,318.200867 712.393127,320.370941 712.397095,323.030640 
M712.380127,266.501282 
	C712.383301,269.657379 712.384155,272.813446 712.390198,275.969543 
	C712.415405,289.125549 712.415955,289.125519 725.747070,288.817749 
	C731.693848,288.680420 733.501404,287.020264 733.580444,281.075623 
	C733.690857,272.771667 733.677368,264.464081 733.571106,256.159912 
	C733.491821,249.963776 731.720764,248.355270 725.394653,248.278244 
	C723.401672,248.253983 721.408081,248.267899 719.414795,248.269745 
	C712.405273,248.276260 712.402344,248.277161 712.383850,255.536514 
	C712.375366,258.858673 712.381165,262.180908 712.380127,266.501282 
z"/>
<path fill="#fde047e6" opacity="1.000000" stroke="none" 
	d="
M420.622864,306.514587 
	C423.493408,319.423523 426.263916,331.926544 428.975128,344.442383 
	C430.544067,351.685120 430.059021,352.373718 422.789886,352.269318 
	C405.867249,352.026306 409.140015,354.860443 405.478851,337.893311 
	C402.872040,325.812683 405.520264,327.477997 392.738556,327.327209 
	C391.072205,327.307526 389.404633,327.291809 387.738892,327.329590 
	C374.249725,327.635406 377.171173,324.907684 374.461670,338.795990 
	C371.285309,355.077240 373.155975,351.954895 358.469055,352.296234 
	C357.802826,352.311707 357.135773,352.300995 356.469208,352.293274 
	C350.176575,352.220337 349.629578,351.506042 351.006836,345.141815 
	C354.243439,330.185730 357.472504,315.227997 360.722900,300.274902 
	C365.668152,277.524780 370.713898,254.795914 375.499695,232.012375 
	C376.299011,228.207047 377.845093,226.501770 381.773621,226.630112 
	C387.434296,226.814987 393.105835,226.753250 398.771088,226.676849 
	C401.875946,226.634979 403.679779,227.715302 404.375458,230.999435 
	C409.682312,256.051880 415.108704,281.079010 420.622864,306.514587 
M388.919373,263.628326 
	C387.004852,274.096161 385.039795,284.555084 383.188049,295.034027 
	C380.655609,309.365143 377.740112,307.911713 394.360291,308.031860 
	C397.953430,308.057831 399.155609,306.643921 398.437347,303.145203 
	C397.400513,298.094849 396.580139,293.000366 395.632721,287.931213 
	C393.918762,278.760834 392.179199,269.595215 390.450317,260.427612 
	C390.152374,260.463745 389.854462,260.499847 389.556549,260.535950 
	C389.402344,261.335785 389.248138,262.135651 388.919373,263.628326 
z"/>
<path fill="#fde047e6" opacity="1.000000" stroke="none" 
	d="
M609.693848,336.989380 
	C609.692810,302.350037 609.683716,268.208313 609.697998,234.066574 
	C609.700928,227.100082 610.096985,226.713654 617.094177,226.704666 
	C633.582153,226.683487 650.071472,226.816483 666.557129,226.620926 
	C671.361755,226.563934 673.265198,228.454056 673.054016,233.089386 
	C672.902588,236.414001 673.002930,239.749619 672.965698,243.080048 
	C672.924500,246.765823 671.193054,248.409546 667.361694,248.355927 
	C657.037903,248.211456 646.708008,248.444107 636.386414,248.235352 
	C632.431458,248.155365 631.121094,249.533279 631.267944,253.446320 
	C631.523987,260.264954 631.457092,267.103485 631.280701,273.927307 
	C631.192139,277.353699 632.436401,278.743469 635.900818,278.682556 
	C643.226318,278.553711 650.561462,278.834076 657.881958,278.605835 
	C662.247192,278.469727 663.982422,280.346588 663.890869,284.484375 
	C663.813538,287.980103 663.826355,291.477722 663.787903,294.974396 
	C663.747498,298.642944 662.040039,300.381378 658.217529,300.312347 
	C650.725464,300.176971 643.227722,300.363007 635.735535,300.229950 
	C632.582947,300.173981 631.213928,301.205109 631.294067,304.537811 
	C631.462158,311.528473 631.507202,318.532410 631.260376,325.518768 
	C631.124084,329.375092 632.322083,330.847412 636.339722,330.758636 
	C646.493958,330.534271 656.659546,330.833557 666.814453,330.625244 
	C671.308655,330.533081 673.101379,332.173798 673.087463,336.712616 
	C673.030884,355.130676 674.122681,352.107544 658.213745,352.264984 
	C644.724976,352.398468 631.233765,352.294342 617.743591,352.272064 
	C609.997192,352.259277 609.727783,351.962402 609.697693,343.982605 
	C609.689575,341.817444 609.694885,339.652191 609.693848,336.989380 
z"/>
<path fill="#fde047e6" opacity="1.000000" stroke="none" 
	d="
M533.502014,671.189697 
	C528.486572,671.606384 525.306824,676.082947 520.590698,677.630005 
	C519.600891,675.441467 521.110413,674.219971 522.008606,673.007080 
	C528.180176,664.672791 536.944580,661.161133 546.875244,659.883057 
	C549.120178,659.594177 550.403381,660.730225 550.946960,662.690613 
	C554.716431,676.284790 556.041931,689.805969 549.967285,703.203552 
	C548.323120,706.829834 546.368347,707.847839 542.606079,705.966431 
	C534.699219,702.012390 526.975342,697.788879 519.732849,692.702148 
	C513.828857,688.555664 508.752869,689.072388 503.894897,694.179199 
	C498.632416,699.711304 492.557648,703.870911 485.017426,705.776550 
	C482.004272,706.538086 480.337463,705.890320 479.375336,702.816406 
	C477.180084,695.802551 475.724548,688.657654 474.971191,681.358276 
	C474.640625,678.154907 475.766571,676.890564 479.256744,677.213745 
	C487.454346,677.972717 494.918213,681.075317 502.624908,683.564026 
	C509.187134,685.683105 515.973267,685.813354 522.407898,682.202087 
	C527.038330,679.603516 531.959412,677.572632 538.357727,675.572388 
	C533.715576,675.337646 530.833252,678.021057 527.061646,677.263000 
	C528.547546,674.159485 531.417175,673.223877 533.502014,671.189697 
z"/>
<path fill="#fde047e6" opacity="1.000000" stroke="none" 
	d="
M277.077362,396.970245 
	C274.924744,396.972046 273.258667,396.930847 271.595795,396.985413 
	C268.232849,397.095795 266.821228,395.575165 266.878723,392.153961 
	C266.936707,388.701172 268.415985,387.605133 271.781250,387.611633 
	C312.565033,387.690460 353.349091,387.687103 394.132935,387.622284 
	C397.534851,387.616882 399.374725,388.368561 399.362366,392.300995 
	C399.349548,396.367798 397.090485,396.938110 393.924438,396.935669 
	C380.440796,396.925262 366.957123,396.948059 353.473480,396.952484 
	C328.170776,396.960815 302.868073,396.964844 277.077362,396.970245 
z"/>
<path fill="#fde047e6" opacity="1.000000" stroke="none" 
	d="
M733.999817,396.921112 
	C699.337891,396.908661 665.175903,396.911591 631.013916,396.871704 
	C624.768250,396.864410 623.335388,395.409668 624.339172,390.702057 
	C624.743103,388.807495 625.570251,387.698425 627.627502,387.718964 
	C629.959717,387.742249 632.292664,387.671295 634.625305,387.670990 
	C673.120056,387.666077 711.614746,387.657104 750.109497,387.682281 
	C752.978821,387.684174 756.318176,386.839996 756.354309,391.758514 
	C756.380920,395.385254 755.146179,396.976288 751.496765,396.917542 
	C745.832581,396.826263 740.165588,396.911377 733.999817,396.921112 
z"/>
<path fill="#fde047e6" opacity="1.000000" stroke="none" 
	d="
M540.259277,409.788635 
	C523.085999,411.760254 511.425720,399.127441 516.445679,384.545502 
	C519.267639,376.348389 528.460938,370.795532 537.486877,371.836456 
	C548.225647,373.074921 555.229858,380.015137 555.981445,390.162079 
	C556.644409,399.112701 550.745483,406.630890 540.259277,409.788635 
M526.167786,390.608612 
	C526.674255,397.437500 529.946899,401.042206 535.637939,401.039612 
	C540.964966,401.037170 544.572510,397.593903 544.991516,392.111908 
	C545.443420,386.198425 542.407776,381.876709 537.289612,381.147125 
	C531.429443,380.311798 527.702515,383.224915 526.167786,390.608612 
z"/>
<path fill="#fde047e6" opacity="1.000000" stroke="none" 
	d="
M470.647675,380.088165 
	C471.155304,376.703094 468.932739,372.516388 474.449219,372.025787 
	C479.647675,371.563446 480.991028,372.657959 481.093842,377.919464 
	C481.103577,378.417999 481.093597,378.916840 481.096802,379.415558 
	C481.140717,386.254791 486.564636,389.574371 492.936493,386.709137 
	C494.405487,386.048584 494.735718,384.872925 494.770294,383.485992 
	C494.815887,381.658356 494.943909,379.820709 494.814392,378.003174 
	C494.521790,373.896027 495.988403,371.926605 500.454834,371.905823 
	C505.101227,371.884216 505.410706,374.422211 505.358185,377.989716 
	C505.223633,387.130981 505.176727,396.277710 505.353729,405.417267 
	C505.424316,409.062775 503.737122,410.057465 500.534637,409.979462 
	C497.526428,409.906250 494.673920,409.831360 494.868408,405.636444 
	C494.922211,404.475464 494.871277,403.309601 494.867371,402.145966 
	C494.847137,396.136139 494.292114,395.555634 488.429108,395.410004 
	C481.268860,395.232178 481.105682,395.322327 481.099548,402.939545 
	C481.096405,406.865540 481.142365,410.363770 475.545746,410.068329 
	C472.024048,409.882385 470.507507,408.725616 470.597351,405.009216 
	C470.794220,396.868378 470.652008,388.719330 470.647675,380.088165 
z"/>
<path fill="#fde047e6" opacity="1.000000" stroke="none" 
	d="
M443.074463,380.798340 
	C440.000336,383.740814 442.675873,384.737732 444.513580,385.548218 
	C447.241486,386.751434 450.217834,387.382904 452.974731,388.530823 
	C457.522644,390.424469 460.325439,393.820221 460.154541,398.901733 
	C459.983673,403.983459 456.891174,407.184448 452.324127,408.864014 
	C444.511963,411.736938 437.270111,409.871277 430.366882,405.818970 
	C427.094940,403.898315 428.831482,401.699890 429.897858,399.440308 
	C431.118561,396.853912 432.701111,396.529388 435.024536,398.122162 
	C437.523682,399.835419 440.363892,400.839691 443.338104,401.397888 
	C445.392181,401.783356 447.673615,401.858459 448.421875,399.515137 
	C449.271088,396.855591 446.829285,396.194183 445.001190,395.518646 
	C442.195679,394.481934 439.284363,393.730225 436.483765,392.681732 
	C432.480255,391.182953 430.354858,388.017731 430.061371,383.923248 
	C429.765503,379.795624 431.637665,376.430969 435.259430,374.345551 
	C442.603485,370.116821 449.995331,371.297760 457.308838,374.511139 
	C460.070770,375.724640 459.589020,377.764587 458.500244,379.920593 
	C457.441071,382.017853 456.741669,384.328094 453.419861,382.985687 
	C450.230560,381.696838 447.085052,379.880249 443.074463,380.798340 
z"/>
<path fill="#fde047e6" opacity="1.000000" stroke="none" 
	d="
M577.277466,400.275696 
	C576.781799,401.867615 576.295654,403.193756 576.419617,404.460205 
	C576.821350,408.564575 575.158020,410.091278 571.020996,410.040680 
	C566.863464,409.989838 565.774048,407.900452 566.127136,404.367249 
	C567.008179,395.551636 565.828674,386.748199 566.020508,377.932434 
	C566.109863,373.826080 567.397034,371.717224 571.833923,371.939362 
	C576.809998,372.188507 581.805420,371.775574 586.769592,372.642670 
	C593.964661,373.899445 598.295227,379.024048 598.044006,386.221222 
	C597.801758,393.164032 592.861084,398.478912 585.953613,399.284119 
	C583.164062,399.609222 580.284058,398.825012 577.277466,400.275696 
M577.724182,381.064606 
	C576.302063,382.328674 576.515747,384.062714 576.403503,385.697693 
	C576.198975,388.678894 576.703613,391.077209 580.526184,390.940521 
	C583.713623,390.826508 587.155701,391.160614 587.742249,386.727692 
	C588.232361,383.024017 586.239868,381.074951 582.799316,380.570587 
	C581.357605,380.359253 579.834229,380.704376 577.724182,381.064606 
z"/>
</svg>